<svg width="142" height="33" fill="none" xmlns="http://www.w3.org/2000/svg"><path d="M.876465 6.73727V32.6084H4.59039V13.8746h.24001l7.63 18.6959h3.0823l7.6299-18.6833h.24v18.7212h3.714V6.73727h-4.7372L14.1531 26.848h-.3032L5.61361 6.73727H.876465ZM40.8611 33c4.2319 0 7.2257-2.0843 8.0847-5.2424l-3.5749-.6443c-.6822 1.8317-2.3244 2.7665-4.4719 2.7665-3.2339 0-5.4066-2.097-5.5077-5.8362h13.7946v-1.339c0-7.011-4.194-9.7522-8.5901-9.7522-5.4066 0-8.969 4.1182-8.969 10.0806 0 6.0257 3.5118 9.967 9.2343 9.967Zm-5.4572-11.786c.1516-2.7539 2.1475-5.1414 5.2172-5.1414 2.9307 0 4.8508 2.1728 4.8635 5.1414H35.4039ZM67.9165 17.9422c-.7832-3.0191-3.1454-4.9898-7.3394-4.9898-4.3834 0-7.491 2.3117-7.491 5.7477 0 2.7539 1.6675 4.5856 5.3056 5.3941l3.2844.72c1.8696.4169 2.7413 1.2506 2.7413 2.4633 0 1.5033-1.6044 2.6781-4.0803 2.6781-2.2612 0-3.7139-.9727-4.1687-2.8802l-3.6507.5558C53.1493 31.0672 56.0042 33 60.3624 33c4.6866 0 7.9331-2.4886 7.9331-6.0004 0-2.7412-1.7433-4.434-5.3056-5.2551l-3.0823-.7074c-2.1349-.5053-3.057-1.2253-3.0444-2.5391-.0126-1.4906 1.6043-2.5517 3.7518-2.5517 2.3496 0 3.436 1.3011 3.8782 2.6023l3.4233-.6064ZM81.5058 13.2051h-3.9792V8.55633h-3.7771v4.64877h-2.8423v3.0317h2.8423v11.4576c-.0126 3.5244 2.6781 5.2298 5.6593 5.1666 1.2001-.0126 2.0086-.24 2.4507-.4042l-.6821-3.1202c-.2527.0505-.7201.1642-1.3264.1642-1.2254 0-2.3244-.4042-2.3244-2.5896V16.2368h3.9792v-3.0317ZM93.6487 33c5.4698 0 9.0443-4.0045 9.0443-10.0049 0-6.0382-3.5745-10.0427-9.0443-10.0427-5.4698 0-9.0448 4.0045-9.0448 10.0427 0 6.0004 3.575 10.0049 9.0448 10.0049Zm.0126-3.1707c-3.5749 0-5.2424-3.1202-5.2424-6.8468 0-3.7139 1.6675-6.872 5.2424-6.872 3.5497 0 5.2172 3.1581 5.2172 6.872 0 3.7266-1.6675 6.8468-5.2172 6.8468ZM106.785 8.8932h1.044V5.52456h1.887c.075 0 .147 0 .219-.00421l1.819 3.37285h1.212l-1.949-3.56233c1.099-.37476 1.613-1.27166 1.613-2.417 0-1.52431-.91-2.644379-2.931-2.644379h-2.914V8.8932Zm1.044-4.31185V1.19587h1.836c1.398 0 1.937.68214 1.937 1.718s-.539 1.66748-1.92 1.66748h-1.853ZM118.311 6.24882c0 1.21271-.926 1.76853-1.667 1.76853-.826 0-1.415-.60635-1.415-1.54957V2.42542h-.994v4.10973c0 1.65064.876 2.44227 2.088 2.44227.977 0 1.617-.52214 1.921-1.17903h.067V8.8932h.994V2.42542h-.994v3.8234ZM125.706 3.87393c-.311-.91795-1.01-1.53273-2.29-1.53273-1.365 0-2.375.77479-2.375 1.86959 0 .89269.53 1.49063 1.718 1.76854l1.078.25265c.652.15159.96.46318.96.90953 0 .55582-.59 1.01059-1.516 1.01059-.813 0-1.322-.3495-1.499-1.04428l-.944.23581c.232 1.09901 1.137 1.68432 2.46 1.68432 1.503 0 2.526-.82111 2.526-1.93697 0-.90111-.564-1.46957-1.718-1.75169l-.96-.23581c-.766-.18948-1.112-.44634-1.112-.94321 0-.55583.59-.96007 1.382-.96007.867 0 1.225.48003 1.397.92638l.893-.25265ZM131.901 3.87393c-.311-.91795-1.01-1.53273-2.29-1.53273-1.365 0-2.375.77479-2.375 1.86959 0 .89269.53 1.49063 1.718 1.76854l1.078.25265c.652.15159.96.46318.96.90953 0 .55582-.59 1.01059-1.516 1.01059-.813 0-1.322-.3495-1.499-1.04428l-.943.23581c.231 1.09901 1.137 1.68432 2.459 1.68432 1.503 0 2.526-.82111 2.526-1.93697 0-.90111-.564-1.46957-1.718-1.75169l-.96-.23581c-.766-.18948-1.112-.44634-1.112-.94321 0-.55583.59-.96007 1.382-.96007.867 0 1.225.48003 1.398.92638l.892-.25265ZM133.515 8.8932h.994V2.42542h-.994V8.8932Zm.505-7.54575c.388 0 .708-.30317.708-.673723 0-.37055-.32-.673727-.708-.673727-.387 0-.707.303177-.707.673727 0 .370553.32.673723.707.673723ZM138.232 9.04479c1.129 0 1.718-.60636 1.92-1.02744h.051v.87585h.994V4.63187c0-2.05486-1.567-2.29067-2.392-2.29067-.977 0-2.089.33687-2.594 1.51589l.943.33686c.219-.47161.737-.9769 1.685-.9769.913 0 1.364.48424 1.364 1.31377v.03368c0 .48003-.489.43792-1.668.58951-1.2.1558-2.509.42108-2.509 1.90328 0 1.26324.977 1.9875 2.206 1.9875Zm.152-.89269c-.792 0-1.364-.35371-1.364-1.04428 0-.75794.69-.99375 1.465-1.0948.421-.05053 1.549-.16844 1.718-.37055V6.552c0 .80847-.64 1.6001-1.819 1.6001Z" fill="#fff"/></svg>